M48
;Layer_Color=9474304
;FILE_FORMAT=2:5
INCH,LZ
T5F00S00C0.20000
%
G90
G05
T05
G00X0136756Y0047665
M15
G01X0033756Y0047665
G01X0033756Y-0062088
G01X0136756Y-0062088
G01X0136756Y0047665
M16
G00X0137276Y-0061449
M15
G01X0137276Y0047551
G01X0033776Y0047555
G01X0033776Y-0061918
G01X0137276Y-0061449
M16
G00X0257893Y-0121021
M15
G01X0259801Y-012043
G01X0261554Y-0119472
G01X0263081Y-0118185
G01X0264322Y-011662
G01X0265228Y-0114839
G01X0265761Y-0112914
G01X0265906Y-011122
G01X0265906Y011122
G01X0265706Y0113208
G01X0265115Y0115116
G01X0264157Y0116869
G01X026287Y0118396
G01X0261305Y0119637
G01X0259524Y0120543
G01X0257599Y0121076
G01X0255906Y012122
G01X0Y012122
G01X-0001988Y0121021
G01X-0003896Y012043
G01X-0005648Y0119472
G01X-0007176Y0118185
G01X-0008417Y011662
G01X-0009322Y0114839
G01X-0009855Y0112914
G01X-001Y011122
G01X-001Y-011122
G01X-00098Y-0113208
G01X-000921Y-0115116
G01X-0008252Y-0116869
G01X-0006965Y-0118396
G01X-00054Y-0119637
G01X-0003619Y-0120543
G01X-0001694Y-0121076
G01X0Y-0121221
G01X0255906Y-0121221
G01X0257893Y-0121021
M16
M17
M30
