G04*
G04 #@! TF.GenerationSoftware,Altium Limited,Altium Designer,18.1.6 (161)*
G04*
G04 Layer_Color=16711935*
%FSLAX25Y25*%
%MOIN*%
G70*
G01*
G75*
%ADD10C,0.01000*%
%ADD26C,0.04724*%
D10*
X24276Y-39635D02*
Y25491D01*
X146776Y-39135D02*
Y25991D01*
Y58055D01*
X24276D02*
X146776D01*
Y-72199D02*
Y-39135D01*
X24276Y-72199D02*
X146776D01*
X24276Y25491D02*
Y58055D01*
Y-72199D02*
Y-39635D01*
D26*
X258268Y111220D02*
G03*
X255906Y113583I-2362J0D01*
G01*
X258268Y111220D02*
G03*
X255906Y113583I-2362J0D01*
G01*
Y-113583D02*
G03*
X258268Y-111221I0J2362D01*
G01*
X255906Y-113583D02*
G03*
X258268Y-111221I0J2362D01*
G01*
X0Y113583D02*
G03*
X-2362Y111220I0J-2362D01*
G01*
X0Y113583D02*
G03*
X-2362Y111220I0J-2362D01*
G01*
Y-111221D02*
G03*
X0Y-113583I2362J0D01*
G01*
X-2362Y-111221D02*
G03*
X0Y-113583I2362J0D01*
G01*
X258268Y-111221D02*
Y111221D01*
X144894Y-69726D02*
Y55303D01*
X0Y113583D02*
X255906D01*
X26118Y-69726D02*
X144894D01*
X26118Y55303D02*
X144894D01*
X26118Y-69726D02*
Y55303D01*
X0Y-113583D02*
X255906D01*
X-2362Y-111221D02*
Y111221D01*
M02*
