M48
;Layer_Color=9474304
;FILE_FORMAT=2:5
INCH,LZ
;TYPE=PLATED
T1F00S00C0.03543
T2F00S00C0.04370
;TYPE=NON_PLATED
T4F00S00C0.10630
%
T01
X0221701Y-0041947
Y-0031947
Y-0021947
Y-0011947
Y-0001947
Y0008053
Y0018053
Y0028053
X0231701
Y0018053
Y0008053
Y-0001947
Y-0011947
Y-0021947
Y-0031947
Y-0041947
T02
X0212835Y009252
X0222834
X0202835
X0192834
X0182834
X0172835
X0162835
X0152834
X0142834
X0132834
X0122835
X0112835
X0102834
X0092835
X0082835
X0072835
X0062835
X0052835
X0042835
X0032835
Y010252
X0042835
X0052835
X0062835
X0072835
X0082835
X0092835
X0102834
X0112835
X0122835
X0132834
X0142834
X0152834
X0162835
X0172835
X0182834
X0192834
X0202835
X0212835
X0222834
T04
X0013661Y-0095394
X0242008
Y009752
X0013661
M30
